<svg width="334" height="619" viewBox="0 0 334 619" fill="none" xmlns="http://www.w3.org/2000/svg">
<g id="side">
<g id="side_pic">
<rect id="Mask" width="334" height="619" fill="url(#paint0_linear)"/>
<mask id="mask0" mask-type="alpha" maskUnits="userSpaceOnUse" x="0" y="0" width="334" height="619">
<rect id="Mask_2" width="334" height="619" fill="white"/>
</mask>
<g mask="url(#mask0)">
<g id="jfrog-icon">
<g id="A-link">
<g id="A">
<path id="Shape" fill-rule="evenodd" clip-rule="evenodd" d="M307.375 397.142L307.375 397.142C301.027 401.928 296.058 405.674 290.426 399.575C287.891 396.804 284.884 391.961 290.191 382.258C294.116 375.107 306.809 372.336 311.189 375.107C315.821 377.658 321.433 388.044 313.74 392.652C311.445 394.073 309.344 395.658 307.375 397.142ZM22.8656 387.353C21.5583 396.526 20.0402 396.816 16.948 397.405C16.7722 397.439 16.5914 397.473 16.4052 397.511C12.9513 398.437 8.55536 392.895 8.55536 387.816C8.31989 382.51 10.8632 379.275 15.9342 379.495C21.2407 379.731 23.0932 382.266 22.8577 387.345L22.8656 387.353ZM-53.8238 574.873C-56.6015 573.542 -59.1301 572.152 -61.3786 570.709L-61.2922 570.724C-72.5182 563.637 -74.7677 553.333 -77.6527 540.118C-79.2765 532.68 -81.1015 524.32 -84.8417 515.093C-92.087 498.012 -108.846 487.163 -118.776 485.546C-143.707 481.621 -121.775 453.44 -110.236 469.375C-89.4081 498.365 -84.892 500.208 -72.3567 505.322C-68.6907 506.818 -64.3389 508.593 -58.6927 511.41L-59.6858 498.466C-63.4038 496.907 -67.8231 494.493 -73.3888 491.002C-82.2022 485.478 -87.9273 478.616 -94.0593 471.266C-102.543 461.098 -111.805 449.996 -131.101 440.213C-154.415 428.439 -138.26 412.739 -128.102 417.59C-120.778 421.061 -118.609 425.22 -115.522 431.139C-111.021 439.772 -104.566 452.149 -77.3137 471.597C-54.9182 487.76 -50.7657 473.214 -49.1486 462.829C-47.5394 452.216 -45.4592 451.745 -41.7697 455.905C-38.0804 460.066 -25.1595 467.68 -9.22443 463.755C6.70282 460.066 11.3185 430.527 12.0093 418.281C12.7001 406.279 19.8591 407.904 21.2407 415.282C27.1515 449.187 43.2767 448.527 63.2991 447.707H63.2993C69.8676 447.438 76.8552 447.152 84.0392 448.063C90.2427 448.868 96.2034 450.626 102.081 452.359C124.851 459.072 146.37 465.417 175.913 414.592C185.843 397.597 196.692 419.67 188.842 428.211C185.286 432.195 181.83 433.766 178.568 435.249C174.845 436.942 171.374 438.519 168.299 443.44C162.302 452.679 158.149 469.525 168.535 479.682L168.275 480.109C168.679 480.13 169.076 480.153 169.464 480.179C181.284 480.967 183.338 473.47 185.119 466.97C186.43 462.185 187.593 457.94 192.396 457.94L192.408 457.94C193.525 457.578 194.655 458.456 196.155 459.62C201.383 463.68 211.104 471.228 240.423 441.909C252.8 429.478 254.975 423.473 256.512 419.23C257.686 415.987 258.488 413.774 263.188 410.51C274.036 402.974 291.353 414.654 276.807 425.738C247.787 447.818 227.266 466.76 212.091 483.13C219.41 496.099 227.024 511.573 232.518 523.151C253.709 532.806 266.798 546.129 266.798 560.873C266.798 573.566 257.104 585.113 241.177 594.117C246.028 586.503 248.556 578.182 248.556 569.877C248.45 560.458 245.098 551.317 238.977 542.705L222.822 568.823C224.327 572.254 225.108 575.773 225.108 579.359C225.108 616.065 143.156 645.847 42.0505 645.847C-59.0551 645.847 -141.243 615.609 -141.243 579.123H-141.25C-141.25 565.041 -129.24 552.12 -108.705 541.499C-113.556 547.269 -116.084 553.509 -116.084 559.97C-116.084 589.162 -64.3784 615.494 6.79559 622.284C-3.9559 621.005 -22.274 617.847 -39.9553 613.299C-45.0535 611.987 -51.1865 609.248 -51.1865 609.248L-53.8238 574.873ZM94.4342 620.516C80.2639 621.963 62.4635 623.731 43.2174 623.975C61.0361 623.96 78.2695 622.737 94.4342 620.516ZM-162.72 557.631C-176.557 567.788 -184.878 580.016 -184.88 593.407C-184.875 627.811 -129.928 655.73 -62.297 655.966C-53.4292 655.984 -44.5669 655.523 -35.7489 654.584C-111.476 640.965 -164.8 608.184 -164.8 570.097C-164.8 565.952 -163.874 561.792 -162.72 557.631ZM-165.718 403.045C-163.175 406.043 -152.107 408.587 -147.946 404.662C-145.631 402.574 -144.249 392.659 -151.4 387.345C-158.551 382.031 -165.718 381.34 -169.172 386.191C-172.642 391.27 -172.414 395.666 -165.718 403.045ZM-144.948 453.598C-141.494 458.213 -141.258 461.683 -143.794 464.218C-146.565 466.989 -152.115 469.297 -156.039 466.299C-159.964 463.064 -159.964 458.449 -156.73 454.524C-153.276 450.363 -148.645 450.363 -144.956 453.598H-144.948ZM201.324 397.883C202.541 397.163 203.881 396.369 205.468 395.886V395.893C208.239 394.967 211.693 388.978 208.003 385.273C204.314 381.568 195.538 383.428 193.693 385.963C190.687 390.116 190.914 394.041 193.222 396.812C196.303 400.856 198.474 399.57 201.324 397.883ZM212.87 439.743C216.089 441.587 221.411 441.823 224.409 438.589H224.425C226.505 436.273 228.13 432.819 224.425 428.894C220.72 424.969 215.186 426.359 213.341 428.894C210.335 433.047 209.872 437.898 212.87 439.743Z" fill="url(#paint1_linear)"/>
<path id="Path" d="M150.271 665.906C190.597 691.791 314.486 701.754 367.831 668.395C409.646 642.256 395.214 600.678 514.947 509.581C530.632 497.628 511.959 485.033 500.261 493.159C488.562 501.285 499.262 503.367 475.713 527.018C427.921 574.809 428.421 531.758 420.947 548.18C405.016 582.292 370.158 616.633 370.158 616.633C335.064 639.53 246.32 701.009 194.542 665.906C161.682 643.754 194.542 665.906 159.042 601.745C129.669 586.559 127.459 598.214 97.5871 556.636C85.144 539.452 61.4937 569.841 88.3775 574.073C99.0853 575.817 117.157 587.515 124.97 605.934C136.169 633.563 131.446 653.98 150.364 665.923L150.271 665.906Z" fill="url(#paint2_linear)"/>
<path id="Shape_2" fill-rule="evenodd" clip-rule="evenodd" d="M550.4 473.06C547.925 474.593 545.659 476.302 543.536 477.902C536.691 483.063 531.333 487.103 525.26 480.526C522.526 477.538 519.284 472.315 525.006 461.853C529.239 454.141 542.926 451.153 547.649 454.141C552.644 456.892 558.696 468.091 550.4 473.06ZM236.742 467.346C235.332 477.238 233.695 477.55 230.36 478.186L230.36 478.186L230.358 478.186C230.169 478.223 229.975 478.26 229.775 478.299C226.051 479.298 221.31 473.322 221.31 467.846C221.056 462.123 223.799 458.636 229.267 458.873C234.989 459.127 236.987 461.861 236.733 467.338L236.742 467.346ZM393.821 566.908C389.741 573.62 379.38 590.55 369.425 595.036H369.417C358.016 585.895 359.905 594.365 363.102 608.694C367.652 629.089 374.85 661.352 350.14 671.593C340.474 675.511 310.693 665.452 281.153 655.475C254.406 646.44 227.857 637.473 216.619 639.01C178.658 644.415 170.248 629.278 160.259 611.299C154.137 600.28 147.421 588.194 132.948 579.114C123.444 573.158 117.27 565.758 110.658 557.832C101.51 546.868 91.5225 534.896 70.7151 524.347C45.575 511.65 62.9954 494.721 73.9487 499.952C81.8468 503.695 84.1853 508.179 87.5136 514.562C92.368 523.871 99.3279 537.218 128.715 558.189C152.865 575.618 157.343 559.933 159.086 548.734C160.822 537.29 163.065 536.782 167.043 541.268C171.022 545.755 184.955 553.965 202.138 549.733C219.313 545.755 224.29 513.902 225.035 500.697C225.78 487.755 233.5 489.507 234.989 497.464C241.363 534.024 258.751 533.312 280.342 532.428C287.425 532.138 294.96 531.829 302.707 532.812C309.396 533.68 315.824 535.576 322.162 537.444C346.715 544.684 369.92 551.525 401.777 496.719C412.485 478.393 424.184 502.195 415.719 511.405C411.885 515.701 408.158 517.395 404.64 518.994C400.625 520.819 396.883 522.52 393.567 527.826C387.1 537.789 382.622 555.955 393.821 566.908ZM499.782 654.458C499.782 632.45 472.737 613.379 432.911 603.67L432.817 603.678C462.19 620.354 479.856 641.516 480.11 664.167C480.11 673.123 477.384 682.095 472.153 690.306C489.328 680.597 499.782 668.145 499.782 654.458ZM36.6194 650.962C21.6976 661.914 12.7254 675.101 12.7236 689.54C12.7278 726.639 71.979 756.745 144.908 756.999C154.471 757.019 164.027 756.522 173.536 755.509C91.8769 740.823 34.3763 705.475 34.3763 664.404C34.3763 659.935 35.3751 655.448 36.6194 650.962ZM59.7703 667.138C59.7703 651.953 72.7213 638.02 94.8649 626.567C89.6337 632.788 86.9081 639.518 86.9081 646.484C86.9081 683.077 164.572 712.695 260.654 712.695C356.491 712.695 434.4 683.069 434.4 646.484C434.399 641.749 433.111 637.103 430.676 633.042C446.107 643.251 454.826 654.949 454.826 667.392C454.826 706.973 366.454 739.088 257.429 739.088C148.404 739.088 59.7788 706.482 59.7788 667.138H59.7703ZM33.3859 484.267C36.1285 487.501 48.0637 490.243 52.55 486.011C55.047 483.759 56.5368 473.068 48.8255 467.338C41.1141 461.607 33.3859 460.862 29.6614 466.093C25.92 471.57 26.1655 476.31 33.3859 484.267ZM55.7834 538.78C59.5079 543.757 59.7618 547.498 57.0277 550.232C54.0397 553.22 48.0552 555.709 43.8228 552.476C39.5905 548.988 39.5905 544.011 43.0779 539.778C46.8024 535.292 51.7966 535.292 55.775 538.78H55.7834ZM429.179 478.701C430.491 477.924 431.935 477.069 433.647 476.547V476.556C436.635 475.557 440.36 469.098 436.381 465.103C432.403 461.108 422.939 463.114 420.95 465.848C417.708 470.326 417.954 474.558 420.442 477.546C423.764 481.907 426.106 480.521 429.179 478.701ZM441.629 523.839C445.1 525.829 450.839 526.083 454.072 522.595H454.089C456.332 520.098 458.085 516.374 454.089 512.141C450.094 507.909 444.126 509.407 442.137 512.141C438.895 516.619 438.396 521.85 441.629 523.839Z" fill="url(#paint3_linear)"/>
</g>
</g>
</g>
</g>
</g>
</g>
<defs>
<linearGradient id="paint0_linear" x1="1.04679e-06" y1="82.1657" x2="268.955" y2="688.464" gradientUnits="userSpaceOnUse">
<stop offset="0.347896" stop-color="#434A59"/>
<stop offset="1" stop-color="#4CB951"/>
</linearGradient>
<linearGradient id="paint1_linear" x1="311.024" y1="374.049" x2="66.3312" y2="686.18" gradientUnits="userSpaceOnUse">
<stop offset="0.524024" stop-color="#3AA46C" stop-opacity="0.79"/>
<stop offset="0.710414" stop-color="#40BE46" stop-opacity="0.33"/>
<stop offset="0.984375" stop-color="#444B5A" stop-opacity="0.57"/>
</linearGradient>
<linearGradient id="paint2_linear" x1="515.18" y1="490.577" x2="515.18" y2="684.445" gradientUnits="userSpaceOnUse">
<stop offset="0.395833" stop-color="#3AA46C"/>
<stop offset="0.782707" stop-color="#40BE46"/>
</linearGradient>
<linearGradient id="paint3_linear" x1="547.472" y1="453" x2="547.472" y2="749.113" gradientUnits="userSpaceOnUse">
<stop offset="0.101243" stop-color="#49C483"/>
<stop offset="0.782707" stop-color="#40BE46"/>
</linearGradient>
</defs>
</svg>
