<svg width="52" height="52" viewBox="0 0 52 52" fill="none" xmlns="http://www.w3.org/2000/svg">
<g clip-path="url(#clip0)">
<path d="M23.0966 31.0116L21.3 31.4986C21.4562 31.94 21.5812 32.7314 21.5812 33.7967V39.0322H23.5965V33.4924C23.9714 33.051 24.3776 32.8379 24.8151 32.8379C25.0338 32.8379 25.2056 32.8836 25.3931 32.9901L25.9399 31.179C25.6274 31.042 25.4868 31.0116 25.19 31.0116C24.9713 31.0116 24.7057 31.0573 24.5339 31.1334C24.1589 31.316 23.6902 31.7269 23.3934 32.1226C23.3934 31.6813 23.284 31.3312 23.0966 31.0116ZM16.1601 28.4243H15.9414V39.017H18.0348V34.3294H20.6751V32.5792H18.0348V30.1441H21.3312L21.4562 29.2157C19.4721 29.0787 17.6755 28.7743 16.1601 28.4243ZM11.2702 40.4324L12.2388 41.5282C13.1762 41.1629 14.3479 40.3411 14.6603 39.0322C14.7697 38.6061 14.8009 38.3321 14.8009 36.9472V28.4395H12.6919V37.1755C12.6919 38.3169 12.645 38.743 12.4888 39.1388C12.2857 39.5801 11.8014 40.0976 11.2702 40.4324ZM30.283 35.06C30.283 36.9167 29.9081 37.7081 29.0488 37.7081C28.6582 37.7081 28.2208 37.4951 28.0333 37.0689C27.8771 36.6732 27.7834 36.0036 27.7834 35.0904C27.7834 34.3142 27.8615 33.7663 27.9865 33.3402C28.1427 32.8531 28.5333 32.5488 29.0176 32.5488C29.3769 32.5488 29.6893 32.701 29.8768 32.9597C30.158 33.3249 30.283 34.0098 30.283 35.06ZM31.5172 38.1038C32.1733 37.3429 32.4702 36.4145 32.4702 35.0752C32.4702 33.812 32.2046 32.9445 31.5953 32.2139C30.9391 31.4225 30.0955 31.042 29.0019 31.042C26.9397 31.042 25.565 32.6705 25.565 35.1361C25.565 37.6016 26.9241 39.1844 29.0019 39.1844C30.1736 39.1996 30.9391 38.7735 31.5172 38.1038ZM37.2351 33.7207C37.2351 34.436 36.7976 34.8317 36.0165 34.8317C35.3135 34.8317 34.8448 34.5121 34.8448 33.7207C34.8448 32.9901 35.2823 32.564 36.0321 32.564C36.782 32.564 37.2351 32.9901 37.2351 33.7207ZM40.7814 32.0465L39.9534 30.7529C39.4847 31.179 38.9223 31.4225 38.3755 31.4225C38.1256 31.4225 37.985 31.3921 37.4382 31.2551C36.8914 31.1029 36.5008 31.0573 36.0634 31.0573C34.1106 31.0573 32.8451 32.0922 32.8451 33.7054C32.8451 34.8621 33.3763 35.5926 34.4855 35.8818C34.0324 35.9883 33.5481 36.2166 33.3294 36.4754C33.1732 36.658 33.0951 36.9015 33.0951 37.1907C33.0951 37.4342 33.1576 37.6473 33.2513 37.8299C33.3607 37.9973 33.5013 38.1343 33.6887 38.2104C34.0481 38.3473 34.6261 38.4387 35.5166 38.4539C35.9853 38.4539 36.2665 38.4691 36.3602 38.4691C36.907 38.4995 37.1882 38.5909 37.4069 38.6974C37.61 38.8191 37.7663 39.0931 37.7663 39.3975C37.7663 39.7019 37.5788 40.0063 37.282 40.1889C37.0164 40.3715 36.5789 40.4476 36.0165 40.4476C35.0948 40.4476 34.5792 40.1128 34.5792 39.4888C34.5792 39.2149 34.6105 39.154 34.673 38.9866H32.8295C32.7514 39.1388 32.6576 39.3518 32.6576 39.778C32.6576 40.3106 32.8607 40.7672 33.2826 41.1629C33.9699 41.8174 35.0948 42 36.1727 42C37.3601 42 38.5161 41.726 39.1879 40.9955C39.6097 40.5389 39.7972 40.0367 39.7972 39.3823C39.7972 38.6822 39.5941 38.1495 39.1411 37.7081C38.6099 37.2059 38.0006 37.0233 36.8289 37.008L35.7509 36.9928C35.5478 36.9928 35.4229 36.9167 35.4229 36.8102C35.4229 36.5971 35.7041 36.4145 36.2196 36.171C36.3758 36.1862 36.4227 36.1862 36.5164 36.1862C38.1412 36.1862 39.3285 35.2122 39.3285 33.8576C39.3285 33.3402 39.1723 32.9445 38.8755 32.5792C39.1254 32.6096 39.2035 32.6249 39.391 32.6249C39.9222 32.6249 40.344 32.4574 40.7814 32.0465ZM15.6289 19.2166C13.1293 19.8101 11.4264 20.982 11.4264 22.3213C11.4264 23.1584 12.0826 23.9194 13.1606 24.5129C12.8325 24.0107 12.6606 23.4628 12.6606 22.9149C12.6763 21.5299 13.7855 20.2363 15.6289 19.2166ZM42 24.4673C42 23.5845 41.4376 22.7779 40.5002 22.1083C40.5783 22.3822 40.6408 22.6562 40.6408 22.9301C40.6408 25.4413 37.032 27.6025 31.9078 28.5004C32.4858 28.5613 33.0795 28.5917 33.7044 28.5917C38.2818 28.5765 42 26.735 42 24.4673ZM39.0473 23.0975C39.0473 22.1691 38.2349 21.3169 36.8445 20.6168C37.1726 20.9972 37.3444 21.4082 37.3444 21.8343C37.3444 24.0716 32.4702 25.8827 26.4398 25.8827C20.4251 25.8827 15.5352 24.0716 15.5352 21.8343C15.5352 21.5451 15.6133 21.2712 15.7695 21.0125C14.8009 21.6365 14.2541 22.3518 14.2541 23.1127C14.2541 25.5326 19.8002 27.4959 26.6429 27.4959C33.4856 27.4959 39.0473 25.5022 39.0473 23.0975ZM33.6419 22.9758C31.111 24.5586 23.3309 25.1674 19.9877 23.128C17.3631 21.5299 18.2692 18.9883 10.7547 13.418C9.77044 12.6875 10.9421 11.9113 11.6764 12.4135C12.4107 12.9158 11.7389 13.0375 13.223 14.4833C16.2226 17.4055 16.1914 14.7725 16.66 15.777C17.6599 17.8621 19.8471 19.9623 19.8471 19.9623C22.0499 21.3625 23.7996 21.6669 27.0491 19.521C29.1113 18.1664 28.2677 21.6821 33.3138 19.1405C35.1573 18.2121 35.0792 18.8361 36.9539 16.2945C37.735 15.2443 39.2192 17.1011 37.5319 17.3598C36.8601 17.4663 35.7197 18.1817 35.2354 19.3079C34.5324 20.9972 34.8292 22.2452 33.6419 22.9758ZM19.6127 18.6839C18.9878 18.4099 18.3317 17.375 18.0817 16.9641C18.7847 16.2945 18.5035 15.1834 18.0973 14.5747C17.7068 13.9659 17.2224 14.1333 16.7069 13.5702C16.1757 13.0071 16.91 11.546 17.5818 12.6722C20.097 16.888 21.753 15.1378 23.7996 14.8791C25.768 14.6355 27.5178 15.6857 28.049 12.7179C28.1427 12.2309 28.627 12.1243 28.6739 12.9158C28.7207 13.7224 29.0332 15.6705 30.1111 15.914C31.1891 16.1727 32.064 15.6705 32.3139 15.3965C32.5639 15.1226 32.7045 15.153 32.8139 15.8531C32.9232 16.538 33.2044 17.4968 34.7198 16.4314C37.8287 14.2703 36.9383 13.4332 38.1568 12.8701C38.8442 12.5505 39.9378 13.5854 38.3599 14.3616C36.1103 15.4726 35.8759 16.8424 34.4543 17.7099C32.064 19.1709 32.7982 17.7707 28.9551 17.2381C27.4709 17.0402 27.0022 18.6382 25.8462 18.1817C23.2059 17.1163 21.3468 17.3294 19.6127 18.6839ZM27.9396 10.8764C28.0333 11.5156 28.1427 11.5003 28.377 11.546C28.6114 11.6069 28.9082 11.2416 28.9082 10.9068C28.9238 10.5567 28.752 10.3437 28.4083 10.3589C28.049 10.3741 27.924 10.5415 27.9396 10.8764ZM39.5004 12.0178C39.7816 12.2765 40.5315 12.1091 40.7033 11.9113C41.1564 11.4243 41.172 11.1351 40.9377 10.8003C40.7033 10.4806 40.219 10.5263 39.7347 10.8764C39.2504 11.2264 39.3441 11.8808 39.5004 12.0178ZM39.2973 15.2443C39.0629 15.5487 39.0473 15.777 39.2192 15.9444C39.4066 16.127 39.7816 16.2792 40.0472 16.0814C40.3128 15.8683 40.3128 15.5639 40.094 15.3052C39.8597 15.0312 39.5472 15.0312 39.2973 15.2443ZM15.5821 11.4395C15.9414 11.546 16.1132 11.8808 16.4101 11.5003C16.5663 11.3177 16.5819 11.059 16.3788 10.785C16.2538 10.6176 15.6602 10.4959 15.4102 10.7394C15.1603 10.9829 15.3946 11.3786 15.5821 11.4395ZM8.25504 11.2264C8.91119 11.6221 9.333 12.2157 9.83293 11.683C10.0048 11.5003 10.2079 11.1807 9.84855 10.5415C9.58296 10.0697 8.72372 9.88709 8.42689 10.0697C8.11443 10.2371 7.73949 10.922 8.25504 11.2264ZM14.301 14.2551C14.5041 14.4681 14.8634 14.4529 15.0821 14.3312C15.2852 14.2094 15.254 13.8898 15.0509 13.6158C14.9259 13.4484 14.551 13.3571 14.301 13.6158C14.051 13.8746 14.1604 14.1029 14.301 14.2551Z" fill="#40BE46"/>
</g>
<defs>
<clipPath id="clip0">
<rect width="52" height="52" fill="white"/>
</clipPath>
</defs>
</svg>
